<svg width="1200" height="630" viewBox="0 0 1200 630" fill="none" xmlns="http://www.w3.org/2000/svg">
  <defs>
    <linearGradient id="bg" x1="72" y1="40" x2="1126" y2="588" gradientUnits="userSpaceOnUse">
      <stop stop-color="#1D4ED8"/>
      <stop offset="1" stop-color="#0EA5E9"/>
    </linearGradient>
    <linearGradient id="panel" x1="64" y1="74" x2="728" y2="548" gradientUnits="userSpaceOnUse">
      <stop stop-color="#F8FAFC" stop-opacity="0.96"/>
      <stop offset="1" stop-color="#EFF6FF" stop-opacity="0.9"/>
    </linearGradient>
    <filter id="shadow" x="0" y="0" width="1400" height="830" filterUnits="userSpaceOnUse" color-interpolation-filters="sRGB">
      <feDropShadow dx="0" dy="26" stdDeviation="36" flood-color="#1E3A8A" flood-opacity="0.22"/>
    </filter>
  </defs>
  <rect width="1200" height="630" rx="36" fill="url(#bg)"/>
  <path d="M0 510C182 456 330 450 506 486C662 520 864 608 1200 482V630H0V510Z" fill="#DBEAFE" opacity="0.16"/>
  <circle cx="972" cy="126" r="92" fill="#DBEAFE" opacity="0.18"/>
  <circle cx="1038" cy="464" r="74" fill="#ECFEFF" opacity="0.12"/>
  <g filter="url(#shadow)">
    <rect x="64" y="78" width="676" height="474" rx="34" fill="url(#panel)"/>
    <rect x="98" y="112" width="300" height="42" rx="21" fill="#DBEAFE"/>
    <text x="248" y="139" text-anchor="middle" fill="#1D4ED8" font-family="Arial, Helvetica, sans-serif" font-size="20" font-weight="700">CV BUSINESS ANALYST</text>
<text x="98" y="206" fill="#1E3A8A" font-family="Arial, Helvetica, sans-serif" font-size="54" font-weight="800">CV business analyst:</text>
<text x="98" y="272" fill="#1E3A8A" font-family="Arial, Helvetica, sans-serif" font-size="54" font-weight="800">lam ro phan tich</text>
<text x="98" y="338" fill="#1E3A8A" font-family="Arial, Helvetica, sans-serif" font-size="54" font-weight="800">va tac dong kinh doanh</text>
    <rect x="98" y="418" width="544" height="2" fill="#0EA5E9" opacity="0.62"/>
<text x="98" y="444" fill="#334155" font-family="Arial, Helvetica, sans-serif" font-size="24" font-weight="500">Nho recruiter thay requirement, dashboard, insight</text>
<text x="98" y="478" fill="#334155" font-family="Arial, Helvetica, sans-serif" font-size="24" font-weight="500">va kha nang ket noi giua data voi quyet dinh.</text>
    <text x="98" y="516" fill="#1D4ED8" font-family="Arial, Helvetica, sans-serif" font-size="22" font-weight="700">DauCV AI Career Assistant</text>
  </g>
  <g>
    <rect x="810" y="112" width="312" height="392" rx="34" fill="rgba(255,255,255,0.10)" stroke="rgba(255,255,255,0.28)"/>
    <rect x="852" y="148" width="228" height="56" rx="18" fill="rgba(255,255,255,0.14)"/>
    <text x="966" y="184" text-anchor="middle" fill="#F8FAFC" font-family="Arial, Helvetica, sans-serif" font-size="22" font-weight="700">Business Analyst CV</text>
    <g fill="none" stroke="#F8FAFC" stroke-width="12" stroke-linecap="round" stroke-linejoin="round">

  <rect x="848" y="254" width="236" height="176" rx="34" fill="rgba(248,250,252,0.08)"/>
  <path d="M880 410h176"/>
  <path d="M898 390v-56"/>
  <path d="M946 390v-98"/>
  <path d="M994 390v-132"/>
  <path d="M1042 390v-76"/>
  <path d="M886 300l52-34 44 20 68-54"/>
  <path d="M1032 232h44v44"/>
  <path d="M1032 276l44-44"/>
  <path d="M892 458h156"/>
    </g>
    <rect x="852" y="448" width="230" height="18" rx="9" fill="rgba(255,255,255,0.16)"/>
    <rect x="852" y="478" width="176" height="18" rx="9" fill="rgba(255,255,255,0.16)"/>
    <text x="966" y="542" text-anchor="middle" fill="#F8FAFC" font-family="Arial, Helvetica, sans-serif" font-size="20" font-weight="600">daucv.com/blog</text>
  </g>
</svg>
