<svg width="1200" height="630" viewBox="0 0 1200 630" fill="none" xmlns="http://www.w3.org/2000/svg">
  <defs>
    <linearGradient id="bg" x1="92" y1="54" x2="1110" y2="586" gradientUnits="userSpaceOnUse">
      <stop stop-color="#1E3A8A"/>
      <stop offset="1" stop-color="#F59E0B"/>
    </linearGradient>
    <linearGradient id="panel" x1="70" y1="80" x2="732" y2="552" gradientUnits="userSpaceOnUse">
      <stop stop-color="#F8FAFC" stop-opacity="0.96"/>
      <stop offset="1" stop-color="#FFF7ED" stop-opacity="0.88"/>
    </linearGradient>
    <filter id="shadow" x="0" y="0" width="1400" height="830" filterUnits="userSpaceOnUse" color-interpolation-filters="sRGB">
      <feDropShadow dx="0" dy="28" stdDeviation="40" flood-color="#111827" flood-opacity="0.20"/>
    </filter>
  </defs>
  <rect width="1200" height="630" rx="36" fill="url(#bg)"/>
  <path d="M0 500C166 456 304 440 470 474C632 506 804 600 1200 464V630H0V500Z" fill="#DBEAFE" opacity="0.18"/>
  <path d="M746 0C902 72 1030 150 1200 106V0H746Z" fill="#FED7AA" opacity="0.18"/>
  <circle cx="904" cy="126" r="88" fill="#FDE68A" opacity="0.13"/>
  <circle cx="996" cy="410" r="68" fill="#BFDBFE" opacity="0.14"/>
  <g filter="url(#shadow)">
    <rect x="64" y="78" width="670" height="474" rx="34" fill="url(#panel)"/>
    <rect x="98" y="112" width="226" height="42" rx="21" fill="#DBEAFE"/>
    <text x="211" y="139" text-anchor="middle" fill="#1E3A8A" font-family="Arial, Helvetica, sans-serif" font-size="20" font-weight="700">CV XAY DUNG</text>
    <text x="98" y="208" fill="#172554" font-family="Arial, Helvetica, sans-serif" font-size="56" font-weight="800">CV ky su xay dung:</text>
    <text x="98" y="276" fill="#172554" font-family="Arial, Helvetica, sans-serif" font-size="56" font-weight="800">neu bat du an, tien do</text>
    <text x="98" y="344" fill="#172554" font-family="Arial, Helvetica, sans-serif" font-size="56" font-weight="800">va an toan thi cong</text>
    <rect x="98" y="422" width="540" height="2" fill="#F59E0B" opacity="0.66"/>
    <text x="98" y="446" fill="#334155" font-family="Arial, Helvetica, sans-serif" font-size="24" font-weight="500">Bien ban ve, khoi luong, giam sat va nghiem thu</text>
    <text x="98" y="480" fill="#334155" font-family="Arial, Helvetica, sans-serif" font-size="24" font-weight="500">thanh bang chung nang luc trong CV xay dung.</text>
    <text x="98" y="516" fill="#B45309" font-family="Arial, Helvetica, sans-serif" font-size="22" font-weight="700">DauCV AI Career Assistant</text>
  </g>
  <g>
    <rect x="810" y="112" width="312" height="392" rx="34" fill="rgba(255,255,255,0.10)" stroke="rgba(255,255,255,0.28)"/>
    <rect x="850" y="148" width="232" height="56" rx="18" fill="rgba(255,255,255,0.13)"/>
    <text x="966" y="184" text-anchor="middle" fill="#F8FAFC" font-family="Arial, Helvetica, sans-serif" font-size="22" font-weight="700">Build Proof</text>
    <g fill="none" stroke="#F8FAFC" stroke-width="12" stroke-linecap="round" stroke-linejoin="round">
      <rect x="846" y="246" width="240" height="188" rx="26" fill="rgba(248,250,252,0.08)" stroke="none"/>
      <path d="M872 416h188"/>
      <path d="M898 416V304"/>
      <path d="M966 416V270"/>
      <path d="M1034 416V332"/>
      <path d="M870 304h194"/>
      <path d="M910 252h112"/>
      <path d="M924 226h84"/>
      <path d="M852 454h228"/>
      <path d="M842 454l44-58"/>
      <path d="M1090 454l-44-58"/>
    </g>
    <rect x="850" y="448" width="232" height="20" rx="10" fill="rgba(255,255,255,0.16)"/>
    <rect x="850" y="482" width="178" height="20" rx="10" fill="rgba(255,255,255,0.16)"/>
    <text x="966" y="542" text-anchor="middle" fill="#F8FAFC" font-family="Arial, Helvetica, sans-serif" font-size="20" font-weight="600">daucv.com/blog</text>
  </g>
</svg>
