<svg xmlns="http://www.w3.org/2000/svg" width="1200" height="675" viewBox="0 0 1200 675" role="img" aria-labelledby="title desc">
  <title id="title">DauCV cover for CV ky thuat vien bao tri</title>
  <desc id="desc">A branded DauCV blog cover with maintenance tools, checklist, and CV graphics.</desc>
  <defs>
    <linearGradient id="bg" x1="0" y1="0" x2="1" y2="1">
      <stop offset="0" stop-color="#0f172a"/>
      <stop offset="0.56" stop-color="#2563eb"/>
      <stop offset="1" stop-color="#22c55e"/>
    </linearGradient>
    <linearGradient id="panel" x1="0" y1="0" x2="1" y2="1">
      <stop offset="0" stop-color="#f8fafc"/>
      <stop offset="1" stop-color="#dbeafe"/>
    </linearGradient>
  </defs>
  <rect width="1200" height="675" fill="url(#bg)"/>
  <path d="M-20 116 H1220 M-20 244 H1220 M-20 372 H1220 M-20 500 H1220" stroke="#ffffff" stroke-opacity="0.08" stroke-width="2"/>
  <path d="M164 -40 V715 M332 -40 V715 M500 -40 V715 M668 -40 V715 M836 -40 V715 M1004 -40 V715" stroke="#ffffff" stroke-opacity="0.08" stroke-width="2"/>
  <g transform="translate(76 70)">
    <rect x="0" y="0" width="192" height="56" rx="18" fill="#ffffff" opacity="0.96"/>
    <circle cx="31" cy="28" r="16" fill="#22c55e"/>
    <path d="M25 28 L31 34 L42 20" fill="none" stroke="#ffffff" stroke-width="5" stroke-linecap="round" stroke-linejoin="round"/>
    <text x="58" y="36" font-family="Inter, Arial, sans-serif" font-size="26" font-weight="800" fill="#14532d">DauCV</text>
  </g>
  <g transform="translate(80 174)">
    <text x="0" y="0" font-family="Inter, Arial, sans-serif" font-size="58" font-weight="900" fill="#ffffff">CV kỹ thuật viên</text>
    <text x="0" y="72" font-family="Inter, Arial, sans-serif" font-size="58" font-weight="900" fill="#ffffff">bảo trì</text>
    <text x="0" y="128" font-family="Inter, Arial, sans-serif" font-size="25" font-weight="600" fill="#dbeafe">Làm rõ tay nghề, quy trình và chỉ số vận hành</text>
  </g>
  <g transform="translate(662 98)">
    <rect x="0" y="0" width="430" height="458" rx="32" fill="url(#panel)" opacity="0.98"/>
    <g transform="translate(54 52)">
      <rect x="0" y="0" width="300" height="58" rx="18" fill="#bfdbfe"/>
      <rect x="26" y="19" width="148" height="13" rx="7" fill="#2563eb"/>
      <rect x="26" y="38" width="238" height="9" rx="5" fill="#1d4ed8" opacity="0.32"/>
    </g>
    <g transform="translate(70 152)">
      <path d="M50 16 L84 50 L58 76 L24 42 Z" fill="#22c55e"/>
      <rect x="68" y="48" width="186" height="30" rx="15" transform="rotate(45 68 48)" fill="#0f172a"/>
      <circle cx="228" cy="205" r="28" fill="#22c55e"/>
      <circle cx="228" cy="205" r="12" fill="#f8fafc"/>
      <path d="M210 190 L91 71" stroke="#0f172a" stroke-width="18" stroke-linecap="round"/>
      <path d="M104 194 h180 M104 236 h150 M104 278 h198" stroke="#2563eb" stroke-width="18" stroke-linecap="round" opacity="0.45"/>
      <path d="M30 190 l18 18 l34 -42 M30 236 l18 18 l34 -42 M30 278 l18 18 l34 -42" fill="none" stroke="#16a34a" stroke-width="10" stroke-linecap="round" stroke-linejoin="round"/>
    </g>
  </g>
  <text x="82" y="604" font-family="Inter, Arial, sans-serif" font-size="22" font-weight="700" fill="#ffffff" opacity="0.92">daucv.com/blog</text>
</svg>
