<svg xmlns="http://www.w3.org/2000/svg" width="1200" height="675" viewBox="0 0 1200 675" role="img" aria-labelledby="title desc">
  <title id="title">DauCV cover for CV nhân viên kho</title>
  <desc id="desc">Branded DauCV blog cover with warehouse inventory boxes and checklist visuals.</desc>
  <defs>
    <linearGradient id="bg" x1="0" y1="0" x2="1" y2="1">
      <stop offset="0" stop-color="#f1fbf5"/>
      <stop offset="0.58" stop-color="#fff6e0"/>
      <stop offset="1" stop-color="#e5f7ff"/>
    </linearGradient>
    <filter id="shadow" x="-20%" y="-20%" width="140%" height="140%">
      <feDropShadow dx="0" dy="18" stdDeviation="18" flood-color="#734a13" flood-opacity="0.16"/>
    </filter>
  </defs>
  <rect width="1200" height="675" fill="url(#bg)"/>
  <path d="M0 520 C168 558 280 474 438 512 C621 557 785 636 1200 538 L1200 675 L0 675 Z" fill="#d7f2df"/>
  <g transform="translate(730 150)" filter="url(#shadow)">
    <rect x="0" y="158" width="136" height="126" rx="14" fill="#eab85f"/>
    <rect x="164" y="158" width="136" height="126" rx="14" fill="#f2c979"/>
    <rect x="82" y="26" width="136" height="126" rx="14" fill="#d99b3d"/>
    <path d="M82 65 H218" stroke="#b57c2d" stroke-width="10"/>
    <path d="M0 198 H136 M164 198 H300" stroke="#c88d35" stroke-width="10"/>
    <rect x="-44" y="318" width="394" height="72" rx="24" fill="#ffffff"/>
    <rect x="-12" y="343" width="118" height="16" rx="8" fill="#32b36b"/>
    <rect x="130" y="343" width="172" height="16" rx="8" fill="#b7dfc5"/>
  </g>
  <g transform="translate(100 86)">
    <rect x="0" y="0" width="148" height="46" rx="23" fill="#ffffff" opacity="0.92"/>
    <circle cx="28" cy="23" r="13" fill="#32b36b"/>
    <text x="52" y="30" font-family="Inter, Arial, sans-serif" font-size="22" font-weight="800" fill="#195b38">DauCV</text>
  </g>
  <text x="100" y="210" font-family="Inter, Arial, sans-serif" font-size="28" font-weight="800" fill="#1f8f53">SEO BLOG</text>
  <text x="100" y="286" font-family="Inter, Arial, sans-serif" font-size="58" font-weight="900" fill="#123c2b">CV nhân viên</text>
  <text x="100" y="354" font-family="Inter, Arial, sans-serif" font-size="58" font-weight="900" fill="#123c2b">kho</text>
  <text x="100" y="418" font-family="Inter, Arial, sans-serif" font-size="27" font-weight="600" fill="#5a4a2f">Nêu rõ kiểm kê, nhập xuất hàng và độ chính xác vận hành</text>
  <g transform="translate(100 474)">
    <rect x="0" y="0" width="176" height="42" rx="21" fill="#ffffff"/>
    <text x="22" y="28" font-family="Inter, Arial, sans-serif" font-size="18" font-weight="800" fill="#1f8f53">Kho vận rõ ràng</text>
  </g>
</svg>
